<svg width="20" height="20" viewBox="0 0 20 20" fill="none" xmlns="http://www.w3.org/2000/svg">
<path d="M0 3.22581C0 1.44424 1.44424 0 3.22581 0H16.7742C18.5558 0 20 1.44424 20 3.22581V16.7742C20 18.5558 18.5558 20 16.7742 20H3.22581C1.44424 20 0 18.5558 0 16.7742V3.22581Z" fill="#475668"/>
<path d="M3.54834 12.3871C3.54834 11.4963 4.27046 10.7742 5.16124 10.7742H7.61286C8.50364 10.7742 9.22576 11.4963 9.22576 12.3871V14.8387C9.22576 15.7295 8.50364 16.4516 7.61286 16.4516H5.16124C4.27046 16.4516 3.54834 15.7295 3.54834 14.8387V12.3871Z" fill="#FAFAFA"/>
<path d="M10.7742 12.3871C10.7742 11.4963 11.4963 10.7742 12.3871 10.7742H14.8387C15.7295 10.7742 16.4516 11.4963 16.4516 12.3871V14.8387C16.4516 15.7295 15.7295 16.4516 14.8387 16.4516H12.3871C11.4963 16.4516 10.7742 15.7295 10.7742 14.8387V12.3871Z" fill="#FAFAFA"/>
<path d="M3.54834 5.1613C3.54834 4.27052 4.27046 3.5484 5.16124 3.5484H7.61286C8.50364 3.5484 9.22576 4.27052 9.22576 5.1613V7.61292C9.22576 8.5037 8.50364 9.22582 7.61286 9.22582H5.16124C4.27046 9.22582 3.54834 8.5037 3.54834 7.61292V5.1613Z" fill="#FAFAFA"/>
<path d="M10.7742 5.1613C10.7742 4.27052 11.4963 3.5484 12.3871 3.5484H14.8387C15.7295 3.5484 16.4516 4.27052 16.4516 5.1613V7.61292C16.4516 8.5037 15.7295 9.22582 14.8387 9.22582H12.3871C11.4963 9.22582 10.7742 8.5037 10.7742 7.61292V5.1613Z" fill="#FAFAFA"/>
</svg>
