<svg width="20" height="20" viewBox="0 0 20 20" fill="none" xmlns="http://www.w3.org/2000/svg">
<path d="M0 3.22581C0 1.44424 1.44424 0 3.22581 0H16.7742C18.5558 0 20 1.44424 20 3.22581V16.7742C20 18.5558 18.5558 20 16.7742 20H3.22581C1.44424 20 0 18.5558 0 16.7742V3.22581Z" fill="#475668"/>
<path d="M7.74189 5.64518C7.74189 6.80319 6.80313 7.74195 5.64511 7.74195C4.4871 7.74195 3.54834 6.80319 3.54834 5.64518C3.54834 4.48716 4.4871 3.5484 5.64511 3.5484C6.80313 3.5484 7.74189 4.48716 7.74189 5.64518Z" fill="#FAFAFA"/>
<path d="M16.4516 14.3548C16.4516 15.5128 15.5128 16.4516 14.3548 16.4516C13.1968 16.4516 12.2581 15.5128 12.2581 14.3548C12.2581 13.1968 13.1968 12.2581 14.3548 12.2581C15.5128 12.2581 16.4516 13.1968 16.4516 14.3548Z" fill="#FAFAFA"/>
<path fill-rule="evenodd" clip-rule="evenodd" d="M14.8387 15.1613L5.16123 5.48385L5.61743 5.02765L15.2949 14.7051L14.8387 15.1613Z" fill="#FAFAFA"/>
<path d="M13.3871 8.70966C12.2291 8.70966 11.2903 7.7709 11.2903 6.61289C11.2903 5.45487 12.2291 4.51611 13.3871 4.51611C14.5451 4.51611 15.4839 5.45487 15.4839 6.61289C15.4839 7.7709 14.5451 8.70966 13.3871 8.70966Z" fill="#FAFAFA"/>
<path d="M6.29043 15.8064C5.13242 15.8064 4.19366 14.8676 4.19366 13.7096C4.19366 12.5516 5.13242 11.6129 6.29043 11.6129C7.44845 11.6129 8.38721 12.5516 8.38721 13.7096C8.38721 14.8676 7.44845 15.8064 6.29043 15.8064Z" fill="#FAFAFA"/>
<path fill-rule="evenodd" clip-rule="evenodd" d="M5.80654 13.871L14.5162 5.16129L14.9724 5.61749L6.26273 14.3272L5.80654 13.871Z" fill="#FAFAFA"/>
</svg>
