<svg width="62" height="62" viewBox="0 0 62 62" fill="none" xmlns="http://www.w3.org/2000/svg">
<path d="M0 10C0 4.47715 4.47715 0 10 0H52C57.5228 0 62 4.47715 62 10V52C62 57.5228 57.5228 62 52 62H10C4.47715 62 0 57.5228 0 52V10Z" fill="#E0565F"/>
<path d="M24.0001 17.5C24.0001 21.0899 21.0899 24 17.5001 24C13.9102 24 11.0001 21.0899 11.0001 17.5C11.0001 13.9101 13.9102 11 17.5001 11C21.0899 11 24.0001 13.9101 24.0001 17.5Z" fill="#FAFAFA"/>
<path d="M51 44.5C51 48.0898 48.0899 51 44.5 51C40.9101 51 38 48.0898 38 44.5C38 40.9101 40.9101 38 44.5 38C48.0899 38 51 40.9101 51 44.5Z" fill="#FAFAFA"/>
<path fill-rule="evenodd" clip-rule="evenodd" d="M46 46.9999L16 16.9999L17.4142 15.5857L47.4142 45.5857L46 46.9999Z" fill="#FAFAFA"/>
<path d="M41.4999 27C37.9101 27 34.9999 24.0899 34.9999 20.5C34.9999 16.9101 37.9101 14 41.4999 14C45.0898 14 47.9999 16.9101 47.9999 20.5C47.9999 24.0899 45.0898 27 41.4999 27Z" fill="#FAFAFA"/>
<path d="M19.4999 48.9999C15.9101 48.9999 12.9999 46.0897 12.9999 42.4999C12.9999 38.91 15.9101 35.9999 19.4999 35.9999C23.0898 35.9999 25.9999 38.91 25.9999 42.4999C25.9999 46.0897 23.0898 48.9999 19.4999 48.9999Z" fill="#FAFAFA"/>
<path fill-rule="evenodd" clip-rule="evenodd" d="M18 43L45 16L46.4142 17.4142L19.4142 44.4142L18 43Z" fill="#FAFAFA"/>
</svg>
