<svg width="20" height="20" viewBox="0 0 20 20" fill="none" xmlns="http://www.w3.org/2000/svg">
<path d="M0 3.22581C0 1.44424 1.44424 0 3.22581 0H16.7742C18.5558 0 20 1.44424 20 3.22581V16.7742C20 18.5558 18.5558 20 16.7742 20H3.22581C1.44424 20 0 18.5558 0 16.7742V3.22581Z" fill="#475668"/>
<path d="M7.09687 5.32257C7.09687 6.48059 6.15811 7.41935 5.00009 7.41935C3.84208 7.41935 2.90332 6.48059 2.90332 5.32257C2.90332 4.16456 3.84208 3.2258 5.00009 3.2258C6.15811 3.2258 7.09687 4.16456 7.09687 5.32257Z" fill="#FAFAFA"/>
<path d="M7.09687 10.1613C7.09687 11.3193 6.15811 12.2581 5.00009 12.2581C3.84208 12.2581 2.90332 11.3193 2.90332 10.1613C2.90332 9.00327 3.84208 8.06451 5.00009 8.06451C6.15811 8.06451 7.09687 9.00327 7.09687 10.1613Z" fill="#FAFAFA"/>
<path d="M7.09687 15C7.09687 16.158 6.15811 17.0968 5.00009 17.0968C3.84208 17.0968 2.90332 16.158 2.90332 15C2.90332 13.842 3.84208 12.9032 5.00009 12.9032C6.15811 12.9032 7.09687 13.842 7.09687 15Z" fill="#FAFAFA"/>
<path d="M11.9355 10.1613C11.9355 11.3193 10.9967 12.2581 9.83872 12.2581C8.6807 12.2581 7.74194 11.3193 7.74194 10.1613C7.74194 9.00327 8.6807 8.06451 9.83872 8.06451C10.9967 8.06451 11.9355 9.00327 11.9355 10.1613Z" fill="#FAFAFA"/>
<path d="M11.9355 15C11.9355 16.158 10.9967 17.0968 9.83872 17.0968C8.6807 17.0968 7.74194 16.158 7.74194 15C7.74194 13.842 8.6807 12.9032 9.83872 12.9032C10.9967 12.9032 11.9355 13.842 11.9355 15Z" fill="#FAFAFA"/>
<path d="M16.7741 15C16.7741 16.158 15.8354 17.0968 14.6773 17.0968C13.5193 17.0968 12.5806 16.158 12.5806 15C12.5806 13.842 13.5193 12.9032 14.6773 12.9032C15.8354 12.9032 16.7741 13.842 16.7741 15Z" fill="#FAFAFA"/>
</svg>
