<svg width="20" height="20" viewBox="0 0 20 20" fill="none" xmlns="http://www.w3.org/2000/svg">
<path d="M0 3.22581C0 1.44424 1.44424 0 3.22581 0H16.7742C18.5558 0 20 1.44424 20 3.22581V16.7742C20 18.5558 18.5558 20 16.7742 20H3.22581C1.44424 20 0 18.5558 0 16.7742V3.22581Z" fill="#475668"/>
<path d="M16.2185 10.7406C16.6317 10.7406 16.9964 10.4125 16.9964 9.98828C17.0207 9.77734 16.9234 9.58984 16.729 9.42578L15.4455 8.33594V5.5C15.4455 5.08516 15.0979 4.75 14.6677 4.75H13.8898C13.4596 4.75 13.112 5.08516 13.112 5.5V6.36016L10.5232 4.16406C10.3774 4.04688 10.1829 4 10.0128 4C9.84261 4 9.64815 4.02344 9.47799 4.1875L3.24308 9.42578C3.07292 9.58984 3 9.77734 3 9.98828C3 10.4102 3.34031 10.7406 3.77785 10.7406H4.55569V12.3742C4.55326 12.3953 4.55326 12.4164 4.55326 12.4398V15.0625C4.55326 15.5805 4.98837 16 5.52557 16H5.91449C5.94366 16 5.97283 15.9977 6.002 15.9953C6.03846 15.9977 6.07492 16 6.11138 16H7.47261C8.00981 16 8.44492 15.5805 8.44492 15.0625V13C8.44492 12.5852 8.79252 12.25 9.22276 12.25H10.7785C11.2087 12.25 11.5563 12.5852 11.5563 13V15.0625C11.5563 15.5805 11.9914 16 12.5286 16H13.902C13.936 16 13.97 16 14.0041 15.9977C14.0308 16 14.0576 16 14.0843 16H14.4732C15.0104 16 15.4455 15.5805 15.4455 15.0625V14.6828C15.4528 14.6219 15.4577 14.5586 15.4577 14.493L15.4407 10.7383H16.2185V10.7406Z" fill="white"/>
</svg>
