<svg width="20" height="20" viewBox="0 0 20 20" fill="none" xmlns="http://www.w3.org/2000/svg">
<path d="M0 3.22581C0 1.44424 1.44424 0 3.22581 0H16.7742C18.5558 0 20 1.44424 20 3.22581V16.7742C20 18.5558 18.5558 20 16.7742 20H3.22581C1.44424 20 0 18.5558 0 16.7742V3.22581Z" fill="#475668"/>
<path d="M11.7864 14.6485C11.7864 14.7961 11.7446 14.9401 11.6647 15.0631L11.2699 15.6653C11.1489 15.8499 10.8744 16 10.6562 16H9.2357C9.0183 16 8.74369 15.85 8.62276 15.6653L8.22933 15.0634C8.16166 14.9593 8.10614 14.7734 8.10614 14.6485L8.10319 13.7297H11.7887L11.7864 14.6485ZM9.94595 4C12.295 4.00751 14 5.94476 14 8.10423C14 9.14446 13.6213 10.0928 12.9966 10.8185C12.6159 11.2601 12.0213 12.1834 11.7938 12.962C11.793 12.9679 11.7916 12.9741 11.7909 12.9804H8.10077C8.10005 12.9741 8.09861 12.9683 8.0979 12.962C7.87043 12.1834 7.2758 11.2601 6.89504 10.8185C6.26966 10.113 5.89189 9.16603 5.89189 8.10423C5.89189 5.84702 7.707 4.00009 9.94595 4ZM7.72543 10.0966C8.08615 10.515 8.53255 11.1818 8.85527 11.8754H11.0346C11.3573 11.1818 11.8037 10.515 12.1642 10.0968C12.6354 9.55043 12.8943 8.83085 12.8943 8.10423C12.8943 6.65568 11.7864 5.13095 9.96668 5.12509C8.31972 5.12509 6.99754 6.47051 6.99754 8.10423C6.99754 8.83085 7.25553 9.55043 7.72543 10.0966ZM10.3145 5.87515C11.3303 5.87515 12.1572 6.71662 12.1572 7.75029C12.1572 7.95759 11.9924 8.12532 11.7887 8.12532C11.585 8.12532 11.4201 7.95656 11.4201 7.75029C11.4201 7.12985 10.9242 6.62521 10.3145 6.62521C10.1108 6.62521 9.94595 6.45766 9.94595 6.25041C9.94595 6.04316 10.1118 5.87515 10.3145 5.87515Z" fill="white"/>
</svg>
