<svg width="20" height="20" viewBox="0 0 20 20" fill="none" xmlns="http://www.w3.org/2000/svg">
<path d="M0 3.22581C0 1.44424 1.44424 0 3.22581 0H16.7742C18.5558 0 20 1.44424 20 3.22581V16.7742C20 18.5558 18.5558 20 16.7742 20H3.22581C1.44424 20 0 18.5558 0 16.7742V3.22581Z" fill="#475668"/>
<path d="M10.0008 4C9.7917 4 9.60075 4.12307 9.50982 4.31693L7.95036 7.62879L4.46544 8.16092C4.26085 8.19139 4.09262 8.33908 4.0267 8.54068C3.96305 8.74462 4.01533 8.96732 4.16082 9.115L6.68869 11.6983L6.09083 15.3435C6.05673 15.5545 6.14084 15.7701 6.31133 15.8944C6.47955 16.0186 6.72279 16.035 6.88647 15.9342L10.0008 14.2183L13.1334 15.9342C13.2971 16.035 13.5199 16.0186 13.6904 15.8944C13.8586 15.7701 13.9427 15.5545 13.929 15.3435L13.313 11.6983L15.8384 9.115C15.9852 8.96732 16.0373 8.74462 15.9727 8.54068C15.9084 8.33908 15.7386 8.19139 15.5342 8.16092L12.0513 7.62879L10.4919 4.31693C10.3987 4.12305 10.21 4 10.0008 4ZM10.0008 5.85073L11.1943 8.3883C11.2739 8.55474 11.4285 8.67195 11.6058 8.70008L14.2955 9.10797L12.3423 11.1029C12.2173 11.2318 12.1604 11.417 12.19 11.5975L12.6492 14.4011L10.2577 13.0837C10.0963 12.9946 9.90309 12.9946 9.74396 13.0837L7.35249 14.4011L7.81169 11.5975C7.84124 11.417 7.78214 11.2318 7.65711 11.1029L5.70437 9.10797L8.39364 8.70008C8.57323 8.67195 8.72781 8.55474 8.8051 8.3883L10.0008 5.85073Z" fill="white"/>
</svg>
