<svg width="20" height="20" viewBox="0 0 20 20" fill="none" xmlns="http://www.w3.org/2000/svg">
<path d="M0 3.22581C0 1.44424 1.44424 0 3.22581 0H16.7742C18.5558 0 20 1.44424 20 3.22581V16.7742C20 18.5558 18.5558 20 16.7742 20H3.22581C1.44424 20 0 18.5558 0 16.7742V3.22581Z" fill="#475668"/>
<path d="M6.25 6.25C6.25 5.56055 6.83297 5 7.55 5H14.7C15.417 5 16 5.56055 16 6.25V11.875C16 12.5645 15.417 13.125 14.7 13.125H9.84125C9.60156 12.627 9.23391 12.1973 8.77688 11.875H10.8V11.25C10.8 10.9043 11.0905 10.625 11.45 10.625H12.75C13.1095 10.625 13.4 10.9043 13.4 11.25V11.875H14.7V6.25H7.55V7.20898C7.16813 6.99609 6.72328 6.875 6.25 6.875V6.25ZM6.25 11.25C5.17344 11.25 4.3 10.4102 4.3 9.375C4.3 8.33984 5.17344 7.5 6.25 7.5C7.32656 7.5 8.2 8.33984 8.2 9.375C8.2 10.4102 7.32656 11.25 6.25 11.25ZM5.70766 11.875H6.79031C8.28734 11.875 9.5 13.041 9.5 14.4785C9.5 14.7656 9.25828 15 8.95766 15H3.54234C3.24172 15 3 14.7676 3 14.4785C3 13.041 4.21266 11.875 5.70766 11.875Z" fill="white"/>
</svg>
